<svg xmlns="http://www.w3.org/2000/svg" version="1.1"
  xmlns:xlink="http://www.w3.org/1999/xlink"
  xmlns:svgjs="http://svgjs.com/svgjs" viewBox="0 0 512 512" style="enable-background:new 0 0 512 512" xml:space="preserve">
  <g>
    <path xmlns="http://www.w3.org/2000/svg" d="m228.538 215.85 10.165-27.928-17.665 6.43c-1.693.616-3.427.908-5.13.908-6.127 0-11.879-3.782-14.097-9.873-2.833-7.785 1.181-16.393 8.965-19.227l41.321-15.04 1.877-5.156-8.823-24.24-63.43 23.086c-1.692.616-3.426.908-5.129.908-6.128 0-11.879-3.782-14.097-9.874-2.833-7.784 1.181-16.392 8.966-19.226l63.429-23.086-10.26-28.19-44.636 16.246c-1.693.616-3.426.908-5.129.908-6.127 0-11.879-3.782-14.097-9.874-2.833-7.784 1.181-16.392 8.966-19.226l44.635-16.246-8.55-23.492c-2.956-8.122-10.626-13.165-18.796-13.165-2.271 0-4.581.39-6.839 1.212l-89.27 32.492c-10.38 3.778-15.731 15.255-11.953 25.634l56.786 156.018h92.791z" fill="#000000" data-original="#000000" class=""></path>
    <path xmlns="http://www.w3.org/2000/svg" d="m423.991 117.416-42.287-15.391-41.428 113.825h47.888l35.827-98.433z" fill="#000000" data-original="#000000" class=""></path>
    <path xmlns="http://www.w3.org/2000/svg" d="m260.463 215.85h47.888l45.163-124.085-42.286-15.391z" fill="#000000" data-original="#000000" class=""></path>
    <path xmlns="http://www.w3.org/2000/svg" d="m321.488 48.183 112.763 41.042-25.465-82.18c-1.361-4.395-5.379-7.045-9.57-7.045-1.834 0-3.702.507-5.396 1.598z" fill="#000000" data-original="#000000" class=""></path>
    <path xmlns="http://www.w3.org/2000/svg" d="m127.801 245.85c-11.046 0-20 8.954-20 20v186.15c0 33.137 26.863 60 60 60h189.072c33.137 0 60-26.863 60-60v-186.15c0-11.046-8.954-20-20-20z" fill="#000000" data-original="#000000" class=""></path>
  </g>
</svg>
